<?xml version="1.0" encoding="UTF-8"?>
<svg id="Layer_1" xmlns="http://www.w3.org/2000/svg" version="1.1" viewBox="0 0 467.09 405.7">
  <!-- Generator: Adobe Illustrator 29.7.1, SVG Export Plug-In . SVG Version: 2.1.1 Build 8)  -->
  <defs>
    <style>
      .st0 {
        fill: #5ccad4;
        isolation: isolate;
      }

      .st1 {
        fill: #f15a29;
      }

      .st2 {
        stroke: #444;
        stroke-width: 4px;
      }

      .st2, .st3 {
        fill: #fff;
      }

      .st4 {
        fill: #d64541;
      }

      .st5 {
        fill: #00a5a5;
      }

      .st6 {
        fill: #f6a623;
      }

      .st7 {
        font-family: Impact, Impact;
        font-size: 34px;
      }

      .st8 {
        fill: #007a7a;
      }
    </style>
  </defs>
  <polygon class="st2" points="373.84 287.1 229.1 370.6 84.37 287.1 84.37 120.1 229.1 36.6 373.84 120.1 373.84 287.1"/>
  <path class="st6" d="M50.84,96h172c7.73,0,14,6.27,14,14h0c0,7.73-6.27,14-14,14H50.84c-7.73,0-14-6.27-14-14h0c0-7.73,6.27-14,14-14Z"/>
  <path class="st1" d="M50.84,136h172c7.73,0,14,6.27,14,14h0c0,7.73-6.27,14-14,14H50.84c-7.73,0-14-6.27-14-14h0c0-7.73,6.27-14,14-14Z"/>
  <path class="st4" d="M50.84,176h172c7.73,0,14,6.27,14,14h0c0,7.73-6.27,14-14,14H50.84c-7.73,0-14-6.27-14-14h0c0-7.73,6.27-14,14-14Z"/>
  <circle class="st0" cx="331.64" cy="288.1" r="74"/>
  <circle class="st3" cx="331.64" cy="288.1" r="64"/>
  <circle class="st8" cx="411.64" cy="288.1" r="5"/>
  <circle class="st8" cx="409.64" cy="305.9" r="5"/>
  <circle class="st8" cx="403.74" cy="322.8" r="5"/>
  <circle class="st8" cx="394.14" cy="338" r="5"/>
  <circle class="st8" cx="381.54" cy="350.6" r="5"/>
  <circle class="st8" cx="366.34" cy="360.2" r="5"/>
  <circle class="st8" cx="349.44" cy="366.1" r="5"/>
  <circle class="st8" cx="331.64" cy="368.1" r="5"/>
  <circle class="st8" cx="313.84" cy="366.1" r="5"/>
  <circle class="st8" cx="296.94" cy="360.2" r="5"/>
  <circle class="st8" cx="281.74" cy="350.6" r="5" transform="translate(-109.47 572.54) rotate(-80.78)"/>
  <circle class="st8" cx="269.14" cy="338" r="5"/>
  <circle class="st8" cx="259.54" cy="322.8" r="5"/>
  <circle class="st8" cx="253.64" cy="305.9" r="5"/>
  <circle class="st8" cx="251.64" cy="288.1" r="5"/>
  <circle class="st8" cx="253.64" cy="270.3" r="5"/>
  <circle class="st8" cx="259.54" cy="253.4" r="5"/>
  <circle class="st8" cx="269.14" cy="238.2" r="5"/>
  <circle class="st8" cx="281.74" cy="225.6" r="5" transform="translate(13.92 467.56) rotate(-80.78)"/>
  <circle class="st8" cx="296.94" cy="216" r="5"/>
  <circle class="st8" cx="313.84" cy="210.1" r="5"/>
  <circle class="st8" cx="331.64" cy="208.1" r="5"/>
  <circle class="st8" cx="349.44" cy="210.1" r="5"/>
  <circle class="st8" cx="366.34" cy="216" r="5"/>
  <circle class="st8" cx="381.54" cy="225.6" r="5"/>
  <circle class="st8" cx="394.14" cy="238.2" r="5"/>
  <circle class="st8" cx="403.74" cy="253.4" r="5"/>
  <circle class="st8" cx="409.64" cy="270.3" r="5"/>
  <circle class="st5" cx="389.14" cy="295.7" r="4"/>
  <circle class="st5" cx="385.24" cy="310.3" r="4"/>
  <circle class="st5" cx="377.64" cy="323.4" r="4"/>
  <circle class="st5" cx="366.94" cy="334.1" r="4"/>
  <circle class="st5" cx="353.84" cy="341.7" r="4"/>
  <circle class="st5" cx="339.24" cy="345.6" r="4"/>
  <circle class="st5" cx="324.04" cy="345.6" r="4"/>
  <circle class="st5" cx="309.44" cy="341.7" r="4"/>
  <circle class="st5" cx="296.34" cy="334.1" r="4"/>
  <circle class="st5" cx="285.64" cy="323.4" r="4"/>
  <circle class="st5" cx="278.04" cy="310.3" r="4"/>
  <circle class="st5" cx="274.14" cy="295.7" r="4"/>
  <circle class="st5" cx="274.14" cy="280.5" r="4"/>
  <circle class="st5" cx="278.04" cy="265.9" r="4"/>
  <circle class="st5" cx="285.64" cy="252.8" r="4"/>
  <circle class="st5" cx="296.34" cy="242.1" r="4"/>
  <circle class="st5" cx="309.44" cy="234.5" r="4"/>
  <circle class="st5" cx="324.04" cy="230.6" r="4"/>
  <circle class="st5" cx="339.24" cy="230.6" r="4"/>
  <circle class="st5" cx="353.84" cy="234.5" r="4"/>
  <circle class="st5" cx="366.94" cy="242.1" r="4"/>
  <circle class="st5" cx="377.64" cy="252.8" r="4"/>
  <circle class="st5" cx="385.24" cy="265.9" r="4"/>
  <circle class="st5" cx="389.14" cy="280.5" r="4"/>
  <text class="st7" transform="translate(97.96 269.8)"><tspan x="0" y="0">Ricci Lab</tspan></text>
</svg>